<svg width="51" height="51" viewBox="0 0 51 51" fill="none" xmlns="http://www.w3.org/2000/svg">
<path d="M25.2339 50.6172C39.041 50.6172 50.2339 39.4243 50.2339 25.6172C50.2339 11.8101 39.041 0.617188 25.2339 0.617188C11.4268 0.617188 0.233887 11.8101 0.233887 25.6172C0.233887 39.4243 11.4268 50.6172 25.2339 50.6172Z" fill="url(#paint0_linear_13_6418)"/>
<path d="M14.7507 20.9674H19.59V36.5283H14.7507V20.9674ZM17.1789 13.2383C18.735 13.2383 19.9833 14.4866 19.9833 16.0427C19.9833 17.5987 18.735 18.847 17.1789 18.847C15.6228 18.847 14.3745 17.5816 14.3745 16.0427C14.3745 14.5037 15.6228 13.2383 17.1789 13.2383Z" fill="white"/>
<path d="M22.6338 20.9656H27.2679V23.0859H27.3363C27.9861 21.8548 29.5592 20.5723 31.919 20.5723C36.8096 20.5723 37.7159 23.787 37.7159 27.9765V36.5093H32.8766V28.9512C32.8766 27.1386 32.8424 24.8301 30.3629 24.8301C27.8835 24.8301 27.456 26.7966 27.456 28.8315V36.5264H22.6167V20.9656H22.6338Z" fill="white"/>
<defs>
<linearGradient id="paint0_linear_13_6418" x1="42.9151" y1="7.93593" x2="7.55264" y2="43.2984" gradientUnits="userSpaceOnUse">
<stop stop-color="#007AB5"/>
<stop offset="1" stop-color="#0046E5"/>
</linearGradient>
</defs>
</svg>
